<?xml version="1.0" encoding="UTF-8"?>
<svg id="Capa_2" data-name="Capa 2" xmlns="http://www.w3.org/2000/svg" viewBox="0 0 408.25 453.24">
  <defs>
    <style>
      .cls-1 {
        fill: #fff;
      }
    </style>
  </defs>
  <g id="Capa_1-2" data-name="Capa 1">
    <path class="cls-1" d="M404.85,22.29c4.92-5.5,4.45-13.96-1.05-18.88s-13.96-4.45-18.88,1.05l-86.73,96.96-.69-19.97c-2.04-58.99-36.51-95.15-65.64-68.86l-44.8,40.4c-18.32,16.52-36.05,35.12-53.09,55.69l-40.54,48.94H24.4c-.38,0-.69.31-.69.69v154.18c0,.38.31.69.69.69h81.55l1.35,1.63L3.41,430.96c-4.92,5.5-4.45,13.96,1.05,18.88,2.55,2.28,5.74,3.41,8.91,3.41,3.67,0,7.33-1.5,9.97-4.46l101.22-113.16,9.41,11.36c17.04,20.57,34.77,39.17,53.09,55.69l44.8,40.4c29.14,26.28,63.6-9.87,65.64-68.86l2.12-61.09c16.17-.87,29.17-33.81,29.17-74.34s-12.6-72.45-28.41-74.29l-.85-24.47,105.32-117.74Z"/>
  </g>
</svg>