<?xml version="1.0" encoding="UTF-8"?>
<svg id="Capa_2" data-name="Capa 2" xmlns="http://www.w3.org/2000/svg" viewBox="0 0 483.37 447.92">
  <defs>
    <style>
      .cls-1 {
        fill: #fff;
      }
    </style>
  </defs>
  <g id="Capa_1-2" data-name="Capa 1">
    <g>
      <path class="cls-1" d="M483.13,220.21c-1.54-44.48-10.17-84.81-25.64-119.86-11.99-27.16-23.87-41.32-26.13-43.88-4.89-5.54-13.34-6.07-18.87-1.18-5.54,4.89-6.07,13.33-1.18,18.87,1.7,1.93,41.69,48.35,45.1,146.98,2.48,71.68-15.25,140.21-45.16,174.6-4.85,5.57-4.26,14.02,1.31,18.86,2.53,2.2,5.66,3.28,8.77,3.28,3.73,0,7.45-1.56,10.09-4.59,34.12-39.21,54.42-115,51.72-193.08Z"/>
      <path class="cls-1" d="M418.45,225.15c-2.46-71.08-31.67-106.16-35-109.92-4.89-5.54-13.33-6.06-18.87-1.18s-6.07,13.33-1.19,18.87c.26.3,26.15,30.37,28.32,93.15,1.56,45.04-9.85,89.61-28.38,110.92-4.85,5.57-4.26,14.02,1.31,18.86,2.53,2.2,5.66,3.28,8.77,3.28,3.73,0,7.45-1.56,10.09-4.59,23.03-26.47,36.74-77.26,34.94-129.39Z"/>
      <path class="cls-1" d="M332.16,150.39c-4.89-5.54-13.34-6.07-18.88-1.19-5.54,4.89-6.07,13.33-1.19,18.87.17.19,16.87,19.89,18.29,60.96,1.03,29.75-6.34,59.01-18.34,72.8-4.85,5.57-4.26,14.02,1.31,18.86,2.53,2.2,5.66,3.28,8.77,3.28,3.73,0,7.45-1.56,10.09-4.59,16.64-19.13,26.18-54.1,24.89-91.28-1.73-50-22.58-75.03-24.95-77.71Z"/>
      <path class="cls-1" d="M276.66,160.63l-2.88-83.05c-2.04-58.99-36.51-95.15-65.64-68.86l-44.8,40.4c-18.32,16.52-36.05,35.12-53.09,55.69l-40.54,48.94H.56c-.31,0-.56.25-.56.56v154.44c0,.31.25.56.56.56h81.68l28.01,33.82c17.04,20.57,34.77,39.17,53.09,55.69l44.8,40.4c29.14,26.28,63.6-9.87,65.64-68.86l2.12-61.09c16.17-.87,29.17-33.81,29.17-74.34s-12.6-72.45-28.41-74.29Z"/>
    </g>
  </g>
</svg>